<svg xmlns="http://www.w3.org/2000/svg" viewBox="0 0 64 64">
  <rect width="64" height="64" rx="14" fill="#2B2320"/>
  <path d="M32 12c-2 0-3 2-3 4v3c-8 2-14 10-14 19 0 9 7 16 17 16s17-7 17-16c0-9-6-17-14-19v-3c0-2-1-4-3-4z" fill="#7B4B6A"/>
  <path d="M33 16c4-4 10-4 13-1-4 3-9 3-13 1z" fill="#7A9E7E"/>
  <circle cx="27" cy="38" r="1.6" fill="#E8C8B0"/><circle cx="33" cy="42" r="1.6" fill="#E8C8B0"/><circle cx="37" cy="35" r="1.6" fill="#E8C8B0"/><circle cx="30" cy="46" r="1.6" fill="#E8C8B0"/>
</svg>
